<svg xmlns="http://www.w3.org/2000/svg" viewBox="0 0 64 64" role="img" aria-label="Internet Court favicon">
  <defs>
    <linearGradient id="bg" x1="10" x2="54" y1="8" y2="58" gradientUnits="userSpaceOnUse">
      <stop offset="0" stop-color="#0f172a"/>
      <stop offset="1" stop-color="#1e293b"/>
    </linearGradient>
    <linearGradient id="gold" x1="18" x2="46" y1="18" y2="44" gradientUnits="userSpaceOnUse">
      <stop offset="0" stop-color="#f8d77b"/>
      <stop offset="1" stop-color="#d69e2e"/>
    </linearGradient>
    <clipPath id="seal-clip">
      <rect x="6" y="6" width="52" height="52" rx="16"/>
    </clipPath>
  </defs>

  <rect x="6" y="6" width="52" height="52" rx="16" fill="url(#bg)"/>
  <g clip-path="url(#seal-clip)" opacity="0.18" stroke="#7dd3fc" stroke-width="1.4">
    <path d="M14 22c6.3 3 29.7 3 36 0"/>
    <path d="M12 32h40"/>
    <path d="M14 42c6.3-3 29.7-3 36 0"/>
    <path d="M22 14c-3 6.3-3 29.7 0 36"/>
    <path d="M32 12v40"/>
    <path d="M42 14c3 6.3 3 29.7 0 36"/>
  </g>
  <rect x="10" y="10" width="44" height="44" rx="12" fill="none" stroke="#f8d77b" stroke-opacity="0.28" stroke-width="1.5"/>

  <g fill="none" stroke="url(#gold)" stroke-linecap="round" stroke-linejoin="round">
    <path d="M22 22h20" stroke-width="3"/>
    <path d="M32 20v21" stroke-width="3"/>
    <path d="M25 26l-6 6" stroke-width="2.5"/>
    <path d="M39 26l6 6" stroke-width="2.5"/>
    <path d="M16.5 33h11" stroke-width="2.5"/>
    <path d="M36.5 33h11" stroke-width="2.5"/>
    <path d="M24 41h16" stroke-width="3"/>
  </g>

  <g fill="#fde68a" stroke="#f8d77b" stroke-width="1.6">
    <path d="M18 33c.8 3.3 2.7 5 5.5 5s4.7-1.7 5.5-5H18Z"/>
    <path d="M35 33c.8 3.3 2.7 5 5.5 5s4.7-1.7 5.5-5H35Z"/>
  </g>

  <circle cx="32" cy="18" r="2.6" fill="#7dd3fc"/>
</svg>
