<svg xmlns="http://www.w3.org/2000/svg" viewBox="0 0 64 64" role="img" aria-label="Internet Court favicon">
  <defs>
    <linearGradient id="court-bg" x1="10" y1="8" x2="54" y2="58" gradientUnits="userSpaceOnUse">
      <stop offset="0" stop-color="#0b1220"/>
      <stop offset="1" stop-color="#1e293b"/>
    </linearGradient>
    <linearGradient id="court-gold" x1="18" y1="18" x2="45" y2="46" gradientUnits="userSpaceOnUse">
      <stop offset="0" stop-color="#ffe08a"/>
      <stop offset="1" stop-color="#d6a52f"/>
    </linearGradient>
  </defs>

  <rect x="6" y="6" width="52" height="52" rx="15" fill="url(#court-bg)"/>
  <rect x="9" y="9" width="46" height="46" rx="12" fill="none" stroke="#facc15" stroke-opacity=".3" stroke-width="2"/>

  <g fill="none" stroke="url(#court-gold)" stroke-linecap="round" stroke-linejoin="round">
    <path d="M20 22h24" stroke-width="4"/>
    <path d="M32 19v22" stroke-width="4"/>
    <path d="M24 28l-7 7" stroke-width="3.5"/>
    <path d="M40 28l7 7" stroke-width="3.5"/>
    <path d="M14 35h14" stroke-width="3.5"/>
    <path d="M36 35h14" stroke-width="3.5"/>
    <path d="M24 45h16" stroke-width="4"/>
  </g>

  <path d="M18 35c1 4 3.3 6 7 6s6-2 7-6H18Z" fill="#fef3c7"/>
  <path d="M32 35c1 4 3.3 6 7 6s6-2 7-6H32Z" fill="#fef3c7"/>
  <circle cx="32" cy="16" r="3.2" fill="#67e8f9"/>
</svg>
